<?xml version="1.0" encoding="iso-8859-1"?>
<!-- Generator: Adobe Illustrator 21.0.2, SVG Export Plug-In . SVG Version: 6.00 Build 0)  -->
<svg xmlns="http://www.w3.org/2000/svg" xmlns:xlink="http://www.w3.org/1999/xlink" version="1.1" id="Layer_1" x="0px" y="0px" viewBox="0 0 40 40" style="enable-background:new 0 0 40 40;" xml:space="preserve">
<g>
	<path style="fill:#98CCFD;" d="M5.723,31.495c0.872-2.199,1.928-5.341,2.952-8.388c1.113-3.313,2.262-6.73,3.197-9.019   c4.048,3.045,5.083,8.772,2.258,13.059c-1.797,2.726-4.822,4.353-8.09,4.353C6.039,31.5,5.828,31.499,5.723,31.495z"/>
	<path style="fill:#4788C7;" d="M12.084,14.904c3.408,2.97,4.183,8.091,1.628,11.968c-1.627,2.469-4.317,3.987-7.256,4.118   c0.807-2.115,1.728-4.853,2.692-7.722C10.161,20.253,11.204,17.15,12.084,14.904 M11.651,13.322C9.75,17.739,6.883,27.43,5,31.947   C5.346,31.982,5.693,32,6.039,32c3.307,0,6.551-1.609,8.507-4.577C17.641,22.729,16.344,16.416,11.651,13.322L11.651,13.322z"/>
</g>
<g>
	<path style="fill:#B6DCFE;" d="M17.862,36.225c-0.375-1.813-0.959-4.112-1.543-6.356L16.223,29.5l-0.38-0.006   C7.415,29.372,1.5,19.694,1.5,14.5c0-4.411,3.589-8,8-8c4.675,0,7.746,3.498,10.456,6.584C22.036,15.453,23.833,17.5,26,17.5   c1.629,0,3.5-0.397,3.5-3.5v-0.457l-0.455-0.066C26.454,13.244,24.5,11.104,24.5,8.5V8.399c-0.001-0.532-0.002-1.523,0.298-1.825   C24.837,6.535,24.888,6.5,25,6.5c1.143,0,1.477,0.268,1.799,0.526C27.063,7.237,27.39,7.5,28,7.5c2.108,0,2.744,0.656,3.063,1.229   L31.5,9.512l0.437-0.783C32.256,8.156,32.892,7.5,35,7.5c0.61,0,0.938-0.263,1.201-0.474C36.523,6.768,36.857,6.5,38,6.5   c0.112,0,0.163,0.035,0.202,0.074c0.301,0.302,0.299,1.293,0.298,1.825V8.5c0,2.605-1.954,4.745-4.544,4.977L33.5,13.518V17   c0,6.766-3.816,11.103-10.745,12.212l-0.353,0.057l-0.061,0.353C21.867,32.36,20.212,34.783,17.862,36.225z"/>
	<g>
		<path style="fill:#4788C7;" d="M25.162,6.916h0.005H25.162 M9.5,7c4.448,0,7.44,3.407,10.08,6.414C21.741,15.875,23.607,18,26,18    c0.989,0,4,0,4-4.025v-0.914l-0.911-0.082C26.758,12.77,25,10.844,25,8.5l0-0.102c-0.001-0.31-0.002-1.082,0.119-1.397    c0.869,0.015,1.101,0.201,1.368,0.415C26.776,7.649,27.215,8,28,8c1.848,0,2.374,0.52,2.626,0.972l0.873,1.567l0.873-1.567    C32.626,8.52,33.152,8,35,8c0.785,0,1.224-0.351,1.514-0.584c0.267-0.214,0.499-0.4,1.368-0.415C38.002,7.316,38,8.088,38,8.398    L38,8.5c0,2.345-1.758,4.27-4.089,4.479L33,13.086V14v3c0,6.491-3.666,10.653-10.323,11.719l-0.705,0.113l-0.122,0.704    c-0.409,2.36-1.742,4.472-3.652,5.864c-0.373-1.691-0.884-3.696-1.395-5.657l-0.192-0.737l-0.761-0.011    C7.711,28.877,2,19.521,2,14.5C2,10.365,5.364,7,9.5,7 M38,6c-2.229,0-1.938,1-3,1c-1.865,0-2.942,0.484-3.5,1.485    C30.942,7.484,29.865,7,28,7c-1.063,0-0.771-1-3-1c-1.042,0-1,1.6-1,2.5c0,2.87,2.196,5.223,5,5.475c0,0.016,0,0.016,0,0.025    c0,2.708-1.5,3-3,3C21.417,17,18,6,9.5,6C4.806,6,1,9.806,1,14.5c0,5.672,6.254,15.37,14.835,15.494    c0.698,2.677,1.329,5.189,1.671,7.006c2.768-1.438,4.778-4.116,5.328-7.294C30.573,28.467,34,23.366,34,17c0-0.623,0-1.844,0-3    c0-0.009,0-0.017,0-0.025c2.805-0.251,5-2.605,5-5.475C39,7.6,39.041,6,38,6L38,6z"/>
	</g>
</g>
<path style="fill:#B6DCFE;stroke:#4788C7;stroke-linecap:round;stroke-miterlimit:10;" d="M12.5,20.5  c-3.798,0-7.787-2.567-10.448-6.297c-0.156-0.219-0.305-0.439-0.448-0.662"/>
<circle style="fill:#4788C7;" cx="13.5" cy="15.5" r="1.5"/>
<path style="fill:#B6DCFE;stroke:#4788C7;stroke-linecap:round;stroke-miterlimit:10;" d="M23.5,22.5  c-0.539,0.462-1.503,1.236-1.843,1.499c0.554,1.234,0.845,2.584,0.843,3.977c-0.005,3.396-1.766,6.5-4.638,8.25  c-0.479-2.315-1.321-5.519-2.139-8.626c-0.094-0.357-0.188-0.716-0.282-1.074"/>
</svg>
